<svg width="96" height="96" viewBox="0 0 96 96" fill="none" xmlns="http://www.w3.org/2000/svg" role="img" aria-labelledby="title desc">
  <title id="title">Champion ERP shopping cart logo</title>
  <desc id="desc">A shopping cart icon inside a rounded green badge.</desc>
  <rect width="96" height="96" rx="28" fill="#059669"/>
  <path d="M24 28H33.8C36.2 28 38.3 29.65 38.85 31.98L40.1 37.25M40.1 37.25H70.98C73.58 37.25 75.52 39.65 74.95 42.18L70.8 60.55C70.28 62.84 68.24 64.47 65.89 64.47H45.3C42.94 64.47 40.9 62.83 40.39 60.52L35.72 39.48C35.36 37.87 36.58 36.34 38.23 36.34H40.1V37.25Z" stroke="white" stroke-width="6" stroke-linecap="round" stroke-linejoin="round"/>
  <path d="M48 76C50.21 76 52 74.21 52 72C52 69.79 50.21 68 48 68C45.79 68 44 69.79 44 72C44 74.21 45.79 76 48 76Z" fill="#FBBF24"/>
  <path d="M66 76C68.21 76 70 74.21 70 72C70 69.79 68.21 68 66 68C63.79 68 62 69.79 62 72C62 74.21 63.79 76 66 76Z" fill="#FBBF24"/>
  <path d="M49 49H64" stroke="#A7F3D0" stroke-width="5" stroke-linecap="round"/>
</svg>
